<?xml version="1.0" encoding="UTF-8" standalone="no"?>
<!-- Generator: Adobe Illustrator 18.1.1, SVG Export Plug-In . SVG Version: 6.00 Build 0)  -->

<svg
   xmlns:dc="http://purl.org/dc/elements/1.1/"
   xmlns:cc="http://creativecommons.org/ns#"
   xmlns:rdf="http://www.w3.org/1999/02/22-rdf-syntax-ns#"
   xmlns:svg="http://www.w3.org/2000/svg"
   xmlns="http://www.w3.org/2000/svg"
   xmlns:sodipodi="http://sodipodi.sourceforge.net/DTD/sodipodi-0.dtd"
   xmlns:inkscape="http://www.inkscape.org/namespaces/inkscape"
   version="1.1"
   id="Capa_1"
   x="0px"
   y="0px"
   viewBox="0 0 197.023 197.023"
   style="enable-background:new 0 0 197.023 197.023;"
   xml:space="preserve"
   width="512px"
   height="512px"
   inkscape:version="0.91 r13725"
   sodipodi:docname="led-allume.svg"><metadata
     id="metadata41"><rdf:RDF><cc:Work
         rdf:about=""><dc:format>image/svg+xml</dc:format><dc:type
           rdf:resource="http://purl.org/dc/dcmitype/StillImage" /></cc:Work></rdf:RDF></metadata><defs
     id="defs39" /><sodipodi:namedview
     pagecolor="#ffffff"
     bordercolor="#666666"
     borderopacity="1"
     objecttolerance="10"
     gridtolerance="10"
     guidetolerance="10"
     inkscape:pageopacity="0"
     inkscape:pageshadow="2"
     inkscape:window-width="1639"
     inkscape:window-height="1026"
     id="namedview37"
     showgrid="false"
     inkscape:zoom="0.4609375"
     inkscape:cx="-2.1694915"
     inkscape:cy="256"
     inkscape:window-x="41"
     inkscape:window-y="24"
     inkscape:window-maximized="1"
     inkscape:current-layer="Capa_1" /><path
     style="fill:#0000ff;fill-opacity:1"
     inkscape:connector-curvature="0"
     id="path5"
     d="m 135.749,73.531 0,-36.297 C 135.749,16.702 119.04,0 98.508,0 77.983,0 61.281,16.702 61.281,37.234 l 0,36.297 -15.221,0 0,20.285 18.435,0 0,46.428 3.271,0 1.335,56.778 8.017,0 1.338,-56.778 3.4,0 0,-46.428 34.464,0 0,46.428 3.264,0 1.338,56.778 8.02,0 1.331,-56.778 3.4,0 0,-46.428 17.289,0 0,-20.285 -15.213,0 z m -6.653,20.285 0,41.844 -3.285,0 -0.88,37.195 -0.873,-37.195 -3.153,0 0,-41.844 8.191,0 z m -51.821,0 0,41.844 -3.293,0 -0.87,37.195 -0.88,-37.195 -3.157,0 0,-41.844 8.2,0 z M 98.511,4.577 c 18.012,0 32.661,14.645 32.661,32.657 l 0,40.878 15.214,0 0,11.127 -95.742,0 0,-11.127 15.221,0 0,-40.878 C 65.862,19.222 80.513,4.577 98.511,4.577 Z" /><g
     id="g7" /><g
     id="g9" /><g
     id="g11" /><g
     id="g13" /><g
     id="g15" /><g
     id="g17" /><g
     id="g19" /><g
     id="g21" /><g
     id="g23" /><g
     id="g25" /><g
     id="g27" /><g
     id="g29" /><g
     id="g31" /><g
     id="g33" /><g
     id="g35" /></svg>